<?xml version="1.0" encoding="utf-8"?>
<!-- Generator: Adobe Illustrator 22.1.0, SVG Export Plug-In . SVG Version: 6.00 Build 0)  -->
<svg version="1.1" id="billboard" xmlns:svg="http://www.w3.org/2000/svg"
	 xmlns="http://www.w3.org/2000/svg" xmlns:xlink="http://www.w3.org/1999/xlink" x="0px" y="0px" viewBox="0 0 400 400"
	 style="enable-background:new 0 0 400 400;" xml:space="preserve">
<style type="text/css">
	.st0{fill:#484759;}
	.st1{fill:#D2D2D3;}
</style>
<rect id="pole" x="172" y="158.4" class="st0" width="18.6" height="239.3"/>
<path id="backface" class="st0" d="M314.6,23.9c0.6,31.9,1.6,63.3,2.4,93.8c0.2,5.9,0.1,11.7,0,17.6c-0.1,3.7-0.1,7.5-3.1,10.3
	c-7.6,4.2-96.8,11.4-133.1,14.7c-29,2.6-57.9,5.6-86.8,8.5c-5.7,0.6-34.2,4.4-34.2-8.3c0-23.2,0-46.5,0-69.7c0-7,3-9.1,9-10.4
	c51.5-11.4,189-43.6,240.5-55.1L314.6,23.9z"/>
<path id="face" class="st1" d="M301.2,21.4c0.6,31.9,1.6,63.3,2.4,93.8c0.2,5.9,0.1,11.7,0,17.6c-0.1,3.7-0.1,7.5-3.1,10.3
	c-7.6,4.2-96.8,11.4-133.1,14.7c-29,2.6-57.9,5.6-86.8,8.5c-5.7,0.6-34.2,4.4-34.2-8.3c0-23.2,0-46.5,0-69.7c0-7,3-9.1,9-10.4
	c51.5-11.4,189-43.6,240.5-55.1L301.2,21.4z"/>
</svg>
