<svg xmlns="http://www.w3.org/2000/svg" viewBox="0 0 150 150"><style>.st0{fill:#fff}.st2{fill:#e6e6e6}.st3{fill:#ccc}</style><g id="jones-outdoor-logo-fill"><g id="tagline-fill"><g id="up_1_"><path id="p-fill" class="st0" d="M140.4 90.3v-7.4h.7v.8l.2-.2c.2-.2.5-.4.8-.5.3-.1.6-.2.9-.2.6 0 1.1.2 1.4.7.3.5.5 1.1.5 2 0 .9-.2 1.6-.6 2.1-.4.5-.9.8-1.6.8-.3 0-.5 0-.7-.1l-.6-.3-.2-.1v2.5l-.8-.1zm2.3-6.9c-.3 0-.6.1-.8.2-.3.1-.5.3-.7.5v3.3h.1c.3.1.5.2.7.3.2 0 .4.1.6.1.5 0 1-.2 1.2-.6.3-.4.4-.9.4-1.7 0-.7-.1-1.2-.3-1.6-.3-.3-.7-.5-1.2-.5z"/><path id="u-fill_1_" d="M136.2 88.4c-.4 0-.8-.1-1.1-.2-.3-.1-.6-.3-.8-.5-.2-.2-.4-.5-.5-.9-.1-.3-.2-.8-.2-1.3V81h.7v4.5c0 .3 0 .6.1.9 0 .2.1.5.3.7.2.2.4.4.6.5.2.1.5.2.9.2.3 0 .6-.1.9-.2.3-.1.5-.3.6-.5.1-.2.2-.4.3-.7 0-.2.1-.5.1-.9v-4.6h.7v4.5c0 .5-.1.9-.2 1.3s-.3.6-.5.9c-.2.2-.5.4-.8.5-.2.3-.6.3-1.1.3z" fill="none"/></g><g id="looking_1_"><path id="g-fill" class="st0" d="M126.4 90.4c-.3 0-.5 0-.8-.1-.2 0-.5-.1-.7-.1v-.7s.1 0 .1.1c.1 0 .3.1.4.1.2 0 .3.1.5.1h.5c.3 0 .6 0 .8-.1.2-.1.4-.2.5-.4.1-.2.2-.3.3-.5 0-.2.1-.4.1-.7v-.8l-.2.2c-.2.2-.5.4-.7.5-.2.1-.5.1-.9.1-.6 0-1.1-.2-1.4-.7-.4-.4-.5-1.1-.5-2 0-.4.1-.8.2-1.2.1-.3.3-.6.5-.9.2-.2.4-.4.7-.5.3-.1.6-.2.8-.2.3 0 .5 0 .7.1l.6.3.2.1.1-.3h.6v4.8c0 .9-.2 1.6-.6 2-.3.6-.9.8-1.8.8zm.4-7.1c-.5 0-.9.2-1.2.6-.3.4-.4.9-.4 1.6 0 .6.1 1.2.3 1.5.2.4.6.5 1.1.5.3 0 .5-.1.8-.2.3-.1.5-.2.7-.4v-3.2h-.1c-.2-.1-.5-.2-.7-.3-.1 0-.3-.1-.5-.1z"/><path id="n-fill_1_" class="st0" d="M122.5 88.3v-3.8c0-.2-.1-.4-.2-.6-.1-.2-.2-.3-.4-.4-.2-.1-.4-.1-.6-.1-.3 0-.5.1-.8.2-.3.1-.5.3-.8.5v4.1h-.7v-5.3h.7v.8l.2-.2c.3-.2.5-.4.8-.6.3-.1.5-.2.8-.2.5 0 .9.2 1.2.5.3.3.4.8.4 1.5v3.5c.1.1-.6.1-.6.1z"/><path id="i-fill" class="st0" d="M116.7 88.3V83h.7v5.3h-.7zm0-6.6V81h.8v.7h-.8z"/><path id="k-fill" class="st0" d="M114.9 88.3l-2.1-2.8-.5.5-.1 2.3h-.6v-7.6h.6v4.8l2.5-2.6h.8l-2.2 2.2 2.5 3.2z"/><path id="o-two-fill_1_" class="st0" d="M108 88.4c-.7 0-1.3-.2-1.7-.7-.4-.5-.6-1.2-.6-2.1 0-.9.2-1.6.7-2.1.4-.5 1-.7 1.7-.7s1.3.2 1.7.7c.4.5.6 1.2.6 2.1 0 .9-.2 1.6-.6 2.1-.5.5-1.1.7-1.8.7zm0-5.1c-.5 0-1 .2-1.2.6-.3.4-.4.9-.4 1.7 0 .7.1 1.3.4 1.7.3.4.7.6 1.2.6s.9-.2 1.2-.6c.3-.4.4-.9.4-1.7 0-.8-.1-1.3-.4-1.7-.3-.4-.7-.6-1.2-.6z"/><path id="o-one-fill_1_" class="st0" d="M102.4 88.4c-.7 0-1.3-.2-1.7-.7-.4-.5-.6-1.2-.6-2.1 0-.9.2-1.6.7-2.1.4-.5 1-.7 1.7-.7s1.3.2 1.7.7c.4.5.6 1.2.6 2.1 0 .9-.2 1.6-.6 2.1-.5.5-1.1.7-1.8.7zm0-5.1c-.5 0-1 .2-1.2.6-.3.4-.4.9-.4 1.7 0 .7.1 1.3.4 1.7.3.4.7.6 1.2.6s.9-.2 1.2-.6c.3-.4.4-.9.4-1.7 0-.8-.1-1.3-.4-1.7-.3-.4-.7-.6-1.2-.6z"/><path id="l-fill" class="st0" d="M95.4 88.3v-7.2h.7v6.6h3.3v.6z"/></g><g id="keep_1_"><path id="p-fill_1_" class="st0" d="M86.4 90.3v-7.4h.7v.8l.2-.2c.2-.2.5-.4.8-.5.3-.1.6-.2.9-.2.6 0 1.1.2 1.4.7.3.5.5 1.1.5 2 0 .9-.2 1.6-.6 2.1-.4.5-.9.8-1.6.8-.3 0-.5 0-.7-.1l-.6-.3-.2-.1v2.5l-.8-.1zm2.3-6.9c-.3 0-.6.1-.8.2-.3.1-.5.3-.7.5v3.3h.1c.3.1.5.2.7.3.2 0 .4.1.6.1.5 0 .9-.2 1.2-.6.3-.4.4-.9.4-1.7 0-.7-.1-1.2-.3-1.6-.3-.3-.7-.5-1.2-.5z"/><path id="e-one-fill" class="st0" d="M77.9 88.4c-.9 0-1.5-.2-2-.7-.5-.5-.7-1.2-.7-2.1 0-.9.2-1.6.7-2.1.5-.5 1-.8 1.8-.8.3 0 .6 0 .9.1.2.1.5.2.7.4.2.2.3.4.4.7.1.3.2.7.2 1.1v.4H76v.1c0 .7.2 1.2.5 1.6.4.4.8.6 1.5.6.2 0 .4 0 .6-.1.2 0 .4-.1.6-.2.2-.1.3-.2.4-.2l.1-.1v.9l-.3.1c-.2.1-.3.1-.4.1-.2 0-.3.1-.5.1-.2.1-.4.1-.6.1zm-.3-5.1c-.3 0-.5 0-.7.1-.2.1-.4.2-.5.4-.2.2-.3.3-.4.5-.1.2-.1.4-.1.7v.1h3.3V85c0-.3 0-.5-.1-.7-.1-.2-.1-.4-.3-.5-.1-.2-.3-.3-.5-.4-.2-.1-.5-.1-.7-.1z"/><path id="e-fill_1_" class="st0" d="M83.3 88.4c-.9 0-1.5-.2-2-.7-.5-.5-.7-1.2-.7-2.1 0-.9.2-1.6.7-2.1.5-.5 1-.8 1.8-.8.3 0 .6 0 .9.1.2.1.5.2.7.4.2.2.3.4.4.7.1.3.2.7.2 1.1v.4h-3.9v.1c0 .7.2 1.2.5 1.6.4.4.8.6 1.5.6.2 0 .4 0 .6-.1.2 0 .4-.1.6-.2.2-.1.3-.2.4-.2l.1-.1v.9l-.3.1c-.2.1-.3.1-.4.1-.2 0-.3.1-.5.1-.2.1-.4.1-.6.1zm-.3-5.1c-.3 0-.5 0-.7.1-.2.1-.4.2-.5.4-.2.2-.3.3-.4.5-.1.2-.1.4-.1.7v.1h3.3V85c0-.3 0-.5-.1-.7-.1-.2-.1-.4-.3-.5-.1-.2-.3-.3-.5-.4-.2-.1-.4-.1-.7-.1z"/><path id="k-fill_1_" class="st0" d="M74 88.3l-2.8-3.6-.6.6v3h-.7v-7.2h.7v3.6l3.3-3.6h.8l-3 3.2 3.2 4z"/></g></g><g id="outdoor-fill"><path id="r-fill" class="st0" d="M137.6 73.2v-8.6h2.5V66l.2-.2c.1-.1.3-.3.5-.4.2-.2.4-.3.6-.4.2-.1.4-.2.7-.3.2-.1.5-.1.7-.1h.5V67h-.1c-.1 0-.2-.1-.4-.1h-.7c-.3 0-.6 0-1 .1l-.9.3h-.1v5.9h-2.5z"/><path id="o-three-fill" class="st0" d="M131.4 73.5c-1.4 0-2.5-.4-3.3-1.2-.8-.8-1.2-1.9-1.2-3.4 0-1.4.4-2.6 1.2-3.4.8-.8 1.9-1.2 3.3-1.2s2.5.4 3.3 1.2c.8.8 1.2 2 1.2 3.4s-.4 2.6-1.2 3.4c-.8.8-1.9 1.2-3.3 1.2zm0-7.5c-.3 0-.5 0-.7.1-.2.1-.4.2-.6.5-.2.2-.3.5-.4.9-.1.4-.1.8-.1 1.4 0 .5 0 1 .1 1.4.1.4.2.6.4.8.2.2.4.4.6.5.2.1.5.2.8.2.2 0 .5-.1.7-.2.3-.1.5-.3.6-.5.2-.2.3-.5.4-.9.1-.3.1-.8.1-1.4 0-.5 0-1-.1-1.4-.1-.4-.2-.7-.4-.9-.2-.2-.4-.4-.6-.5h-.8z"/><path id="o-two-fill" class="st0" d="M121.3 73.5c-1.4 0-2.5-.4-3.3-1.2-.8-.8-1.2-1.9-1.2-3.4 0-1.4.4-2.6 1.2-3.4.8-.8 1.9-1.2 3.3-1.2s2.5.4 3.3 1.2c.8.8 1.2 2 1.2 3.4s-.4 2.6-1.2 3.4c-.7.8-1.9 1.2-3.3 1.2zm0-7.5c-.3 0-.5 0-.7.1-.2.1-.4.2-.6.5-.2.2-.3.5-.4.9-.1.4-.1.8-.1 1.4 0 .6 0 1 .1 1.4.1.4.2.6.4.8.2.2.4.4.6.5.2.1.5.2.8.2.2 0 .5-.1.7-.2.3-.1.5-.3.6-.5.2-.2.3-.5.4-.9.1-.3.1-.8.1-1.4 0-.5 0-1-.1-1.4-.1-.4-.2-.7-.4-.9-.2-.2-.4-.4-.6-.5h-.8z"/><path id="d-fill" class="st0" d="M109.8 73.4c-1 0-1.7-.4-2.3-1.2-.6-.8-.9-1.9-.9-3.3 0-.8.1-1.4.3-2 .2-.6.5-1 .8-1.4.3-.4.7-.7 1.1-.9.4-.2.9-.3 1.4-.3.4 0 .8 0 1.1.1.3.1.6.2 1 .4l.2.1V61h2.5v12.1h-2.5V72l-.2.2c-.2.1-.4.3-.6.5-.2.2-.4.3-.6.4-.2.1-.4.2-.6.2-.1.1-.4.1-.7.1zm1.6-7.3c-.7 0-1.3.3-1.6.8-.4.5-.5 1.2-.5 2 0 .9.1 1.6.4 2 .3.4.8.6 1.4.6.3 0 .5 0 .8-.2.3-.1.5-.2.7-.4h.1v-4.5h-.1c-.1-.1-.3-.1-.6-.2s-.5-.1-.6-.1z"/><path id="t-fill" class="st0" d="M103.8 73.4c-1.1 0-1.9-.2-2.4-.7-.5-.4-.7-1.2-.7-2.2v-4.3h-1.1v-1.7h1.1V62h2.5v2.5h2.7v1.7h-2.7v4.1c0 .3.1.5.1.7.1.2.2.4.4.5.2.1.5.2.9.2.2 0 .4 0 .6-.1.3-.1.4-.1.5-.2v1.7c-.3.1-.5.1-.8.2-.2 0-.6.1-1.1.1z"/><path id="u-fill" class="st0" d="M92.7 73.4c-.8 0-1.5-.3-2-.8s-.7-1.3-.7-2.4v-5.7h2.5v5.4c0 .3.1.6.2.8.1.2.2.4.5.5.2.1.5.2.8.2.2 0 .5 0 .7-.2.3-.1.5-.2.8-.4h.1v-6.2h2.5v8.6h-2.5v-1.1l-.2.2c-.5.4-.9.7-1.3.9-.4.1-.8.2-1.4.2z"/><path id="o-one-fill" class="st0" d="M82.7 73.4c-1.7 0-3.1-.5-4.1-1.6-1-1.1-1.5-2.6-1.5-4.4 0-1.9.5-3.3 1.5-4.4 1-1.1 2.4-1.6 4.1-1.6 1.7 0 3.1.5 4.1 1.6 1 1.1 1.5 2.6 1.5 4.4 0 1.9-.5 3.4-1.5 4.4-1 1.1-2.4 1.6-4.1 1.6zm0-10c-.4 0-.7.1-1 .2-.3.1-.6.4-.9.7-.3.3-.5.7-.6 1.3-.2.5-.2 1.1-.2 1.9 0 .7.1 1.4.2 1.8.1.5.4.9.6 1.2.3.3.6.6.9.7.3.1.7.2 1.1.2s.7-.1 1.1-.2c.3-.2.6-.4.9-.7.3-.4.5-.8.6-1.2.1-.5.2-1.1.2-1.8s-.1-1.3-.2-1.8-.3-.9-.6-1.3c-.3-.3-.6-.6-.9-.7-.5-.3-.9-.3-1.2-.3z"/></g><path id="pipe-fill" class="st0" d="M72 59.6h.5v16.2H72z"/><g id="jones-fill"><path id="s-fill" class="st0" d="M58.8 72.9c-1 0-1.6-.2-2-.5-.4-.3-.5-.9-.5-1.8v-.3h2.2v.6h6.3v-1.8h-5.7c-1 0-1.6-.2-2-.5-.4-.3-.5-.9-.5-1.8v-1c0-.8.2-1.4.5-1.8.4-.3 1-.5 2-.5h5.3c.9 0 1.6.2 2 .5.4.3.6.9.6 1.6v.4h-2.2v-.5h-5.9v1.6h5.7c1 0 1.6.2 2 .5.4.3.5.9.5 1.8v1.2c0 .9-.2 1.5-.5 1.8-.4.3-1 .5-1.9.5h-5.9z"/><path id="e-fill" class="st0" d="M45 72.9v-9.2h9.9v1.8h-7.4v1.7h4.4V69h-4.4v1.9h7.6v2z"/><path id="n-fill" class="st0" d="M41.2 72.9L33.8 67v5.9h-2.3v-9.2h1.8l7.3 5.7v-5.8h2.3v9.3z"/><path id="o-fill" class="st0" d="M20.1 72.9c-1 0-1.6-.2-2-.5-.4-.3-.5-.9-.5-1.8v-4.7c0-.9.2-1.4.5-1.8.3-.3 1-.5 2-.5H27c1 0 1.6.2 2 .5.3.3.5.9.5 1.8v4.7c0 .9-.2 1.5-.5 1.8-.4.3-1 .5-1.9.5h-7zm0-2H27v-5.3h-6.9v5.3z"/><path id="j-fill" class="st0" d="M8 72.9c-1.1 0-1.9-.2-2.3-.6-.4-.4-.6-1.1-.6-2.1v-2.3H8v2.7h4.7v-9h2.8v8.6c0 1.1-.2 1.8-.6 2.1-.4.4-1.1.6-2.2.6H8z"/></g></g><g id="jones-outdoor-logo-stroke"><g id="tagline-stroke_1_"><g id="up_2_"><path id="p-stroke_3_" class="st2" d="M143 82.9c.6 0 1 .2 1.3.6.3.5.5 1.1.5 1.9 0 .9-.2 1.6-.6 2.1-.4.5-.9.7-1.5.7-.2 0-.5 0-.7-.1-.2-.1-.4-.1-.6-.3l-.4-.2v2.6h-.4v-7.1h.4v.9l.5-.4c.2-.2.5-.4.7-.5.2-.1.5-.2.8-.2m-.5 5c.6 0 1-.2 1.4-.6.3-.4.5-1 .5-1.7s-.1-1.2-.3-1.6c-.3-.4-.7-.7-1.2-.7-.3 0-.6.1-.9.2-.3.1-.5.3-.8.5h-.2v3.5l.2.1c.3.1.5.2.7.3h.6m.5-5.3c-.3 0-.7.1-.9.2-.3.1-.5.3-.8.5v-.6h-.9v7.7h.9V88c.2.1.4.2.7.3.2.1.5.1.7.1.7 0 1.2-.3 1.7-.8.4-.6.7-1.3.7-2.2 0-.9-.2-1.5-.5-2-.5-.5-1-.8-1.6-.8zm-.5 5.1c-.2 0-.4 0-.6-.1-.2 0-.4-.1-.6-.2v-3.2c.2-.2.5-.3.7-.5.2-.1.5-.2.8-.2.5 0 .8.2 1 .5.2.4.3.8.3 1.5s-.1 1.2-.4 1.6c-.4.4-.7.6-1.2.6z"/><path id="u-stroke_3_" class="st2" d="M138.7 81.2v4.4c0 .5 0 .9-.1 1.3-.1.3-.3.6-.5.8-.2.2-.5.4-.7.5-.3.1-.6.2-1.1.2-.4 0-.8-.1-1.1-.2-.3-.1-.5-.3-.7-.5-.2-.2-.4-.5-.5-.8-.1-.3-.1-.8-.1-1.3v-4.4h.5v4.4c0 .4 0 .7.1.9 0 .3.1.5.3.7.2.2.4.4.7.5.3.1.6.2 1 .2s.7-.1.9-.2c.3-.1.5-.3.7-.6.1-.2.2-.5.3-.7 0-.2.1-.5.1-.9v-4.4h.2m.2-.2h-1v4.7c0 .3 0 .6-.1.8 0 .2-.1.4-.3.6-.1.2-.3.4-.6.5-.2.1-.5.2-.8.2-.3 0-.6 0-.8-.2-.2-.1-.4-.3-.5-.5l-.3-.6c0-.2-.1-.5-.1-.9v-4.7h-1v4.7c0 .5.1 1 .2 1.3.1.4.3.7.6.9.2.2.5.4.8.5.3.1.7.2 1.2.2s.8-.1 1.2-.2c.3-.1.6-.3.8-.5.3-.3.4-.6.6-.9.1-.4.2-.8.2-1.3l-.1-4.6z"/></g><g id="looking_2_"><path id="g-stroke_1_" class="st2" d="M126.6 82.9c.3 0 .5 0 .7.1l.6.3.3.2.1-.4h.4v4.7c0 .9-.2 1.5-.6 1.9-.4.4-.9.6-1.7.6-.3 0-.5 0-.8-.1-.2 0-.4-.1-.6-.1v-.4c.1 0 .3.1.4.1.2 0 .3.1.5.1h.5c.3 0 .6 0 .8-.1.2-.1.4-.2.6-.4l.3-.6c0-.2.1-.4.1-.7V87l-.4.4c-.2.2-.5.3-.7.4-.2.1-.5.1-.8.1-.6 0-1-.2-1.3-.6-.3-.4-.5-1.1-.5-1.9 0-.4.1-.8.2-1.1.1-.3.3-.6.5-.8.2-.2.4-.4.7-.5.2 0 .5-.1.7-.1m0 4.8c.3 0 .6-.1.8-.2.3-.1.5-.3.8-.5l.1-.1v-3.4l-.2-.1c-.3-.1-.5-.2-.7-.3-.2-.1-.4-.1-.7-.1-.6 0-1 .2-1.3.6-.3.4-.5 1-.5 1.7s.1 1.2.4 1.6c.3.6.7.8 1.3.8m0-5.1c-.3 0-.6.1-.9.2-.3.1-.5.3-.7.6-.2.3-.4.6-.5.9-.1.4-.2.8-.2 1.2 0 .9.2 1.6.6 2 .4.5.9.7 1.5.7.4 0 .7-.1.9-.2.2-.1.5-.3.7-.5v.5c0 .2 0 .4-.1.6 0 .2-.1.3-.2.5-.1.1-.3.2-.5.3-.2.1-.4.1-.7.1h-.5c-.1 0-.3-.1-.5-.1s-.3-.1-.4-.1c-.1 0-.2-.1-.3-.1v1c.2.1.5.1.8.2.3 0 .6.1.8.1.9 0 1.5-.2 1.9-.7.4-.4.6-1.1.6-2.1v-5h-.9v.3l-.6-.3c-.2 0-.5-.1-.8-.1zm0 4.8c-.5 0-.8-.2-1-.5-.2-.3-.3-.8-.3-1.4 0-.7.1-1.2.4-1.5.3-.4.7-.5 1.1-.5.2 0 .4 0 .6.1.2 0 .4.1.7.2v3.1c-.2.2-.4.3-.7.4-.3.1-.6.1-.8.1z"/><path id="n-stroke_3_" class="st2" d="M121.6 82.9c.5 0 .8.1 1.1.5.3.3.4.8.4 1.4v3.4h-.4v-3.7c0-.3-.1-.5-.2-.6-.1-.2-.2-.3-.4-.4-.2-.1-.4-.1-.7-.1-.3 0-.6.1-.8.2-.3.1-.5.3-.8.5l-.1.1v4h-.4v-5.1h.4v.9l.5-.4c.3-.2.5-.4.8-.5 0-.1.3-.2.6-.2m0-.3c-.3 0-.6.1-.9.2-.3.1-.6.3-.8.6v-.6h-.9v5.6h.9v-4.2c.2-.2.5-.4.7-.5.3-.1.5-.2.7-.2.2 0 .4 0 .6.1l.3.3c.1.1.1.3.1.5v3.9h.9v-3.6c0-.7-.2-1.2-.5-1.6-.2-.3-.6-.5-1.1-.5z"/><path id="i-stroke_1_" class="st2" d="M117.3 82.2v.4h-.5v-.4h.5m0 1.9v5.1h-.4v-5.1h.4m.3-2.1h-1.1v1h1.1v-1zm-.1 1.9h-.9v5.6h.9v-5.6z"/><path id="k-stroke_3_" class="st2" d="M112.1 80.9v5l.5-.5 2.1-2.3h.4l-1.8 1.9-.2.2.2.2 2.3 2.8h-.6l-2-2.6-.2-.2-.2.2-.4.4-.1.1v2.2h-.4V81l.4-.1m.3-.3h-.9v7.8h.9v-2.3l.4-.4 2.1 2.7h1.2l-2.6-3.3 2.3-2.3h-1.2l-2.2 2.4v-4.6z"/><path id="o-two-stroke_3_" class="st2" d="M108 82.9c.7 0 1.2.2 1.6.7.4.5.6 1.1.6 2 0 .9-.2 1.5-.6 2-.4.5-.9.7-1.6.7-.7 0-1.2-.2-1.6-.7-.4-.5-.6-1.1-.6-2 0-.9.2-1.5.6-2 .4-.5.9-.7 1.6-.7m0 5.1c.6 0 1-.2 1.3-.6.3-.4.5-1 .5-1.8s-.2-1.4-.5-1.8c-.3-.4-.8-.6-1.3-.6-.6 0-1 .2-1.4.6-.3.4-.5 1-.5 1.8s.1 1.3.5 1.8c.3.4.8.6 1.4.6m0-5.4c-.8 0-1.4.3-1.8.8-.5.5-.7 1.2-.7 2.2 0 .9.2 1.6.7 2.2.4.5 1.1.8 1.8.8.8 0 1.4-.3 1.8-.8.5-.5.7-1.2.7-2.2 0-.9-.2-1.7-.7-2.2-.5-.5-1.1-.8-1.8-.8zm0 5.1c-.5 0-.9-.2-1.1-.5-.3-.4-.4-.9-.4-1.6 0-.7.1-1.3.4-1.6.3-.4.6-.5 1.1-.5.5 0 .9.2 1.1.5.3.4.4.9.4 1.6 0 .7-.1 1.3-.4 1.6-.3.4-.6.5-1.1.5z"/><path id="o-one-stroke_3_" class="st2" d="M102.4 82.9c.7 0 1.2.2 1.6.7.4.5.6 1.1.6 2 0 .9-.2 1.5-.6 2-.4.5-.9.7-1.6.7-.7 0-1.2-.2-1.6-.7-.4-.5-.6-1.1-.6-2 0-.9.2-1.5.6-2 .4-.5.9-.7 1.6-.7m0 5.1c.6 0 1-.2 1.3-.6.3-.4.5-1 .5-1.8s-.1-1.4-.5-1.8c-.3-.4-.8-.6-1.3-.6s-1 .2-1.4.6c-.3.4-.5 1-.5 1.8s.2 1.3.5 1.8c.3.4.8.6 1.4.6m0-5.4c-.8 0-1.4.3-1.8.8s-.7 1.2-.7 2.2c0 .9.2 1.6.7 2.2.4.5 1.1.8 1.8.8.8 0 1.4-.3 1.8-.8.5-.5.7-1.2.7-2.2 0-.9-.2-1.7-.7-2.2-.5-.5-1.1-.8-1.8-.8zm0 5.1c-.5 0-.9-.2-1.1-.5-.3-.4-.4-.9-.4-1.6 0-.7.1-1.3.4-1.6.3-.4.6-.5 1.1-.5s.9.2 1.1.5c.3.4.4.9.4 1.6 0 .7-.1 1.3-.4 1.6-.3.4-.6.5-1.1.5z"/><path id="l-stroke_1_" class="st2" d="M95.9 81.2v6.6h3.4v.3h-3.8v-6.9h.4m.3-.3h-1v7.5h4.3v-.9h-3.3v-6.6z"/></g><g id="keep_2_"><path id="p-stroke_2_" class="st2" d="M88.9 82.9c.6 0 1 .2 1.3.6.3.5.5 1.1.5 1.9 0 .9-.2 1.6-.6 2.1-.4.5-.9.7-1.5.7-.2 0-.5 0-.7-.1-.2-.1-.4-.1-.6-.3l-.4-.2v2.6h-.4v-7.1h.4v.9l.5-.4c.2-.2.5-.4.7-.5.2-.1.5-.2.8-.2m-.5 5c.6 0 1-.2 1.4-.6.3-.4.5-1 .5-1.7s-.1-1.2-.3-1.6c-.3-.4-.7-.7-1.2-.7-.3 0-.6.1-.9.2-.3.1-.5.3-.8.5h-.2v3.5l.2.1c.3.1.5.2.7.3h.6m.5-5.3c-.3 0-.7.1-.9.2-.3.1-.5.3-.8.5v-.6h-.9v7.7h.9V88c.2.1.4.2.7.3.2.1.5.1.7.1.7 0 1.2-.3 1.7-.8.4-.6.7-1.3.7-2.2 0-.9-.2-1.5-.5-2-.4-.5-.9-.8-1.6-.8zm-.5 5.1c-.2 0-.4 0-.6-.1-.2 0-.4-.1-.6-.2v-3.2c.2-.2.5-.3.7-.5.2-.1.5-.2.8-.2.5 0 .8.2 1 .5s.3.8.3 1.5-.1 1.2-.4 1.6c-.3.4-.7.6-1.2.6z"/><path id="e-two-stroke_1_" class="st2" d="M83 82.9c.3 0 .6 0 .8.1.2.1.4.2.6.4.2.2.3.4.4.7.1.3.1.6.1 1v.2H81v.3c0 .7.2 1.3.6 1.7.4.4.9.6 1.6.6.2 0 .5 0 .7-.1.2 0 .4-.1.6-.2.2-.1.3-.1.4-.2v.4l-.1.1h-.1c-.2.1-.3.1-.4.1-.2 0-.3.1-.5.1h-.5c-.8 0-1.4-.2-1.9-.7-.4-.4-.7-1.1-.7-2 0-.8.2-1.5.6-2 .5-.3 1-.5 1.7-.5m-1.9 2.3h3.6v-.3c0-.3 0-.5-.1-.7l-.3-.6c-.1-.2-.3-.3-.5-.4-.2-.1-.5-.1-.7-.1-.3 0-.5 0-.7.1-.2.1-.4.2-.6.4-.2.2-.3.4-.4.6-.1.2-.1.4-.2.7l-.1.3m1.9-2.6c-.8 0-1.4.3-1.9.8s-.7 1.3-.7 2.2c0 .9.2 1.6.7 2.1.5.5 1.2.8 2.1.8h.6c.1 0 .3-.1.5-.1.1 0 .3-.1.4-.2.2-.1.3-.1.4-.2v-1H85c-.1.1-.2.1-.3.2-.1.1-.3.1-.4.2-.2.1-.3.1-.5.2-.2 0-.4.1-.6.1-.6 0-1-.2-1.4-.5-.3-.3-.5-.8-.5-1.5h3.9v-.5c0-.4-.1-.8-.2-1.1-.1-.3-.3-.6-.5-.8-.2-.2-.4-.4-.7-.5-.1-.1-.4-.2-.8-.2zM81.4 85c0-.2.1-.4.1-.6.1-.2.2-.3.3-.5.1-.1.3-.3.5-.3.2-.1.4-.1.6-.1s.5 0 .6.1c.2.1.3.2.4.3.1.1.2.3.2.5.1.2.1.4.1.7l-2.8-.1z"/><path id="e-one-stroke_1_" class="st2" d="M77.6 82.9c.3 0 .6 0 .8.1.2.1.4.2.6.4.2.2.3.4.4.7.1.3.1.6.1 1v.2h-3.8v.3c0 .7.2 1.3.6 1.7.4.4.9.6 1.6.6.2 0 .5 0 .7-.1.2 0 .4-.1.6-.2.2-.1.3-.1.4-.2v.4h-.1l-.2.2c-.2.1-.3.1-.4.1-.2 0-.3.1-.5.1h-.5c-.8 0-1.4-.2-1.9-.7-.4-.4-.7-1.1-.7-2 0-.8.2-1.5.6-2 .5-.4 1-.6 1.7-.6m-1.9 2.3h3.6v-.3c0-.3 0-.5-.1-.7l-.3-.6c-.1-.2-.3-.3-.5-.4-.2-.1-.5-.1-.7-.1-.3 0-.5 0-.7.1-.2.1-.4.2-.6.4-.2.2-.3.4-.4.6-.1.2-.1.4-.2.7l-.1.3m1.9-2.6c-.8 0-1.4.3-1.9.8-.4.6-.7 1.3-.7 2.2 0 .9.2 1.6.7 2.1s1.2.8 2.1.8h.6c.1 0 .3-.1.5-.1.1 0 .3-.1.4-.2.2-.1.3-.1.4-.2v-1h-.1c-.1.1-.2.1-.3.2-.1.1-.3.1-.4.2-.2.1-.3.1-.5.2-.2 0-.4.1-.6.1-.6 0-1-.2-1.4-.5-.3-.3-.5-.8-.5-1.5h3.9v-.5c0-.4-.1-.8-.2-1.1-.1-.3-.3-.6-.5-.8-.2-.2-.4-.4-.7-.5-.1-.1-.4-.2-.8-.2zM76 85c0-.2.1-.4.1-.6.1-.2.2-.3.3-.5.1-.1.3-.3.5-.3.2-.1.4-.1.6-.1.3 0 .5 0 .6.1.2.1.3.2.4.3.1.1.2.3.2.5.1.2.1.4.1.7L76 85z"/><path id="k-stroke_2_" class="st2" d="M74.4 81.2l-2.7 2.9-.2.2.1.2 2.9 3.7H74l-2.6-3.4-.2-.3-.2.2-.4.5-.1.1v2.8H70v-6.9h.5v3.9l.5-.5 3-3.3.4-.1m.6-.3h-1.2l-3.1 3.4v-3.4h-1v7.5h1v-3l.4-.5 2.7 3.5h1.3l-3.3-4.1 3.2-3.4z"/></g></g><g id="outdoor-stroke_1_"><path id="r-stroke_1_" class="st3" d="M142.8 64.7h.3v2.1c-.1 0-.2 0-.4-.1h-.7c-.3 0-.6 0-1 .1-.3.1-.7.2-1 .3l-.2.1v5.9h-2.2v-8.4h2.2v1.6l.5-.4c.1-.1.3-.3.5-.4.2-.2.4-.3.6-.4l.6-.3c.4-.1.6-.1.8-.1m0-.3c-.2 0-.5 0-.8.1-.3.1-.5.2-.7.3-.2.1-.4.2-.6.4-.2.2-.4.3-.5.4v-1.3h-2.8v8.9h2.8v-6l.9-.3c.3-.1.6-.1.9-.1h.7c.2 0 .4 0 .5.1h.2v-2.6h-.3c-.1.1-.2.1-.3.1z"/><path id="o-three-stroke_1_" class="st3" d="M131.4 64.4c1.4 0 2.5.4 3.2 1.2.7.8 1.1 1.9 1.1 3.3s-.4 2.5-1.1 3.3c-.7.8-1.8 1.2-3.2 1.2-1.4 0-2.4-.4-3.2-1.2-.8-.8-1.1-1.9-1.1-3.3s.4-2.5 1.1-3.3c.7-.8 1.8-1.2 3.2-1.2m0 7.5c.3 0 .5-.1.8-.2.3-.1.5-.3.7-.5.2-.3.3-.6.4-.9.1-.3.1-.8.1-1.4 0-.6 0-1-.1-1.4-.1-.4-.2-.7-.4-.9-.2-.3-.4-.4-.7-.6-.2-.1-.5-.2-.8-.2-.3 0-.5 0-.8.1-.2.1-.5.3-.7.5-.2.2-.3.6-.4.9-.1.4-.2.9-.2 1.4 0 .6 0 1 .1 1.4.1.4.2.7.4.9.2.2.4.4.7.5.3.3.6.4.9.4m0-7.8c-1.5 0-2.6.4-3.4 1.3-.8.8-1.2 2-1.2 3.5s.4 2.6 1.2 3.5c.8.8 1.9 1.3 3.4 1.3s2.6-.4 3.4-1.3c.8-.8 1.2-2 1.2-3.5s-.4-2.6-1.2-3.5c-.9-.8-2-1.3-3.4-1.3zm0 7.5c-.3 0-.5 0-.7-.1-.2-.1-.4-.2-.6-.5-.1-.2-.3-.5-.4-.8-.1-.3-.1-.8-.1-1.3s0-1 .1-1.4c.1-.4.2-.6.4-.8.2-.2.4-.4.6-.4.2-.1.4-.1.7-.1.3 0 .5 0 .7.1.2.1.4.2.6.5.2.2.3.5.4.8.1.4.1.8.1 1.3 0 .6 0 1-.1 1.3-.1.3-.2.6-.4.8-.1.2-.3.3-.5.4-.4.2-.6.2-.8.2z"/><path id="o-two-stroke_2_" class="st3" d="M121.3 64.4c1.4 0 2.5.4 3.2 1.2.7.8 1.1 1.9 1.1 3.3s-.4 2.5-1.1 3.3c-.7.8-1.8 1.2-3.2 1.2-1.4 0-2.4-.4-3.2-1.2-.8-.8-1.1-1.9-1.1-3.3s.4-2.5 1.1-3.3c.8-.8 1.9-1.2 3.2-1.2m.1 7.5c.3 0 .5-.1.8-.2.3-.1.5-.3.7-.5.2-.3.3-.6.4-.9.1-.3.1-.8.1-1.4 0-.6 0-1-.1-1.4-.1-.4-.2-.7-.4-.9-.2-.3-.4-.4-.7-.6-.2-.1-.5-.2-.8-.2-.3 0-.5 0-.8.1-.2.1-.5.3-.7.5-.2.2-.3.5-.4.9-.1.4-.2.9-.2 1.4 0 .6 0 1 .1 1.4.1.4.2.7.4.9.2.2.4.4.7.5.3.3.6.4.9.4m-.1-7.8c-1.5 0-2.6.4-3.4 1.3-.8.8-1.2 2-1.2 3.5s.4 2.6 1.2 3.5c.8.8 1.9 1.3 3.4 1.3s2.6-.4 3.4-1.3c.8-.8 1.2-2 1.2-3.5s-.4-2.6-1.2-3.5c-.8-.8-1.9-1.3-3.4-1.3zm.1 7.5c-.3 0-.5 0-.7-.1-.2-.1-.4-.2-.6-.5-.1-.2-.3-.5-.3-.8-.1-.3-.1-.8-.1-1.3s0-1 .1-1.4c.1-.4.2-.6.4-.8.2-.2.4-.4.6-.4.2-.1.4-.1.7-.1.3 0 .5 0 .7.1.2.1.4.2.6.5.2.2.3.5.4.8.1.4.1.8.1 1.3 0 .6 0 1-.1 1.3-.1.3-.2.6-.4.8-.1.2-.3.3-.5.4-.5.2-.7.2-.9.2z"/><path id="d-stroke_1_" class="st3" d="M115 61.3v11.8h-2.2v-1.3l-.4.4c-.2.1-.4.3-.6.5-.2.2-.4.3-.6.4-.2.1-.4.2-.6.2-.2 0-.4.1-.7.1-.9 0-1.6-.4-2.2-1.1-.6-.8-.8-1.9-.8-3.2 0-.7.1-1.4.3-1.9.2-.5.5-1 .8-1.4.3-.4.7-.6 1.1-.8.4-.2.9-.3 1.3-.3s.8 0 1.1.1c.3.1.6.2 1 .4l.4.2v-4l2.1-.1m-3.9 10.4c.3 0 .5-.1.8-.2.3-.1.5-.2.8-.4l.1-.1v-4.7l-.1-.1c-.2-.1-.4-.1-.6-.2-.2 0-.4-.1-.6-.1-.8 0-1.3.3-1.7.8-.4.5-.6 1.2-.6 2.1 0 .9.1 1.6.4 2.1.3.5.8.8 1.5.8m4.1-10.7h-2.8v3.8c-.4-.2-.7-.4-1-.5-.3-.1-.7-.1-1.1-.1-.5 0-1 .1-1.5.3-.5.2-.8.5-1.2.9-.4.4-.6.9-.8 1.5-.2.6-.3 1.2-.3 2 0 1.4.3 2.5.9 3.4.6.8 1.4 1.3 2.4 1.3.3 0 .6 0 .8-.1.2-.1.4-.1.7-.2.2-.1.4-.2.6-.4.2-.2.4-.3.6-.5v.9h2.8l-.1-12.3zm-4.1 10.4c-.6 0-1-.2-1.3-.6-.3-.4-.4-1-.4-1.9 0-.8.2-1.5.5-2s.8-.7 1.5-.7c.2 0 .3 0 .6.1.2 0 .4.1.5.2v4.4c-.2.2-.4.3-.7.4-.3 0-.5.1-.7.1z"/><path id="t-stroke_1_" class="st3" d="M103.1 62.1v2.6h2.7v1.4h-2.7v4.3c0 .3.1.5.1.7.1.2.3.4.5.6.2.1.5.2 1 .2.2 0 .4 0 .7-.1.2 0 .3-.1.4-.1V73c-.2.1-.5.1-.7.1-.3 0-.7.1-1.2.1-1.1 0-1.8-.2-2.3-.6-.5-.4-.7-1.1-.7-2.1V66h-1.1v-1.4h1.1V62h2.2m.2-.1h-2.8v2.5h-1.1v1.9h1.1v4.2c0 1.1.3 1.8.8 2.3.5.5 1.3.7 2.5.7.5 0 .9 0 1.2-.1.3 0 .7-.1 1-.2v-2h-.2c-.1.1-.3.1-.5.2s-.4.1-.6.1c-.4 0-.6-.1-.8-.2-.2-.1-.3-.3-.4-.4-.1-.2-.1-.4-.1-.6v-4h2.7v-1.9h-2.7l-.1-2.5z"/><path id="u-stroke_2_" class="st3" d="M98 64.7v8.4h-2.2v-1.3l-.4.4c-.5.4-.9.7-1.3.9-.4.2-.8.3-1.3.3-.8 0-1.4-.2-1.9-.7-.4-.5-.7-1.3-.7-2.3v-5.5h2.2v5.3c0 .3.1.6.2.8.1.2.3.4.5.5.2.1.5.2.9.2.2 0 .5-.1.8-.2.3-.1.6-.2.8-.4l.1-.1v-6.1H98m.3-.5h-2.8v6.3c-.2.2-.5.3-.7.4-.3.1-.5.1-.7.1-.3 0-.6 0-.7-.1-.2-.1-.3-.2-.4-.4-.1-.2-.1-.4-.2-.7v-5.5H90v5.8c0 1.1.2 2 .7 2.5.5.6 1.2.8 2.1.8.6 0 1-.1 1.4-.3.4-.2.8-.5 1.3-.9v1h2.8v-9z"/><path id="o-one-stroke_2_" class="st3" d="M82.7 61.5c1.7 0 3 .5 4 1.6 1 1 1.5 2.5 1.5 4.3 0 1.8-.5 3.3-1.5 4.3s-2.3 1.6-4 1.6c-1.7 0-3-.5-4-1.6s-1.5-2.5-1.5-4.3c0-1.8.5-3.3 1.5-4.3.9-1 2.3-1.6 4-1.6m0 10.1c.4 0 .8-.1 1.1-.3.4-.2.7-.4 1-.8.3-.4.5-.8.6-1.3.1-.5.2-1.1.2-1.9 0-.7-.1-1.4-.2-1.9-.2-.5-.4-1-.6-1.3-.3-.4-.6-.6-1-.8-.4-.2-.7-.2-1.1-.2-.4 0-.8.1-1.1.2-.3.1-.7.4-1 .8-.3.3-.5.8-.6 1.3-.2.5-.2 1.2-.2 1.9 0 .8.1 1.4.2 1.9.2.5.4.9.6 1.3.3.4.6.6 1 .8.3.2.7.3 1.1.3m0-10.3c-1.8 0-3.2.6-4.2 1.7S77 65.6 77 67.5s.5 3.4 1.5 4.5 2.4 1.7 4.2 1.7c1.8 0 3.2-.5 4.2-1.6s1.5-2.6 1.5-4.5-.5-3.4-1.5-4.5c-1-1.3-2.4-1.8-4.2-1.8zm0 10c-.3 0-.7-.1-1-.2-.3-.1-.6-.4-.9-.7-.2-.3-.4-.7-.6-1.2-.1-.5-.2-1.1-.2-1.8s.1-1.3.2-1.8.3-.9.6-1.2c.3-.3.6-.6.9-.7.3-.1.6-.2 1-.2.3 0 .7.1 1 .2.3.1.6.4.9.7.2.3.4.7.6 1.2.1.5.2 1.1.2 1.8s-.1 1.3-.2 1.8-.3.9-.6 1.2c-.2.3-.5.6-.8.7-.4.2-.8.2-1.1.2z"/></g><path id="pipe-stroke_1_" class="st2" d="M72.3 59.7v15.9h-.2V59.7h.2m.3-.2h-.7v16.4h.7V59.5z"/><g id="jones-stroke_1_"><path id="s-stroke_1_" class="st3" d="M64.5 63.8c.9 0 1.5.1 1.9.4.3.3.5.8.5 1.5v.2H65v-.5h-6.3v1.9h5.9c.9 0 1.5.1 1.9.4.3.3.5.9.5 1.7v1.2c0 .8-.2 1.4-.5 1.7-.3.3-.9.4-1.8.4h-5.8c-.9 0-1.6-.1-1.9-.4-.3-.3-.5-.9-.5-1.7v-.2h2v.7h6.6V69h-5.8c-.9 0-1.5-.2-1.9-.5-.3-.3-.5-.9-.5-1.7v-1c0-.8.2-1.4.5-1.7.3-.3 1-.5 1.9-.5l5.2.2m0-.3h-5.3c-.6 0-1.6.1-2.1.5s-.6 1.2-.6 1.9v1c0 .6.1 1.4.6 1.9s1.4.5 2.1.5h5.5v1.5h-6v-.6h-2.5v.5c0 .6.1 1.4.6 1.9s1.4.5 2.1.5h5.8c.6 0 1.5-.1 2-.5s.6-1.3.6-1.9v-1.2c0-.6-.1-1.4-.6-1.9s-1.4-.5-2-.5H59v-1.3h5.6v.5h2.5v-.4c0-.6-.1-1.3-.6-1.7-.5-.6-1.4-.7-2-.7z"/><path id="e-stroke_1_" class="st3" d="M54.8 63.8v1.6h-7.4v2h4.4V69h-4.4v2.2H55v1.7h-9.8v-9h9.6m.3-.4H44.9V73h10.3v-2.2h-7.5v-1.6H52v-2.1h-4.3v-1.4h7.4v-2.2z"/><path id="n-stroke_2_" class="st3" d="M42.8 63.7v9h-1.5L34.2 67l-.4-.4v6.1h-2v-9h1.5l7.2 5.6.4.3v-6l1.9.1m.2-.2h-2.5v5.7l-7.2-5.7h-1.9V73H34v-5.7l7.2 5.7H43v-9.5z"/><path id="o-stroke_1_" class="st3" d="M27 63.8c.9 0 1.6.2 1.9.4.3.3.5.9.5 1.7v4.7c0 .8-.2 1.4-.5 1.7-.3.3-.9.4-1.9.4h-6.9c-.9 0-1.5-.2-1.9-.4-.3-.3-.5-.9-.5-1.7v-4.7c0-.8.2-1.4.5-1.7.3-.3.9-.4 1.9-.4H27M20 71h7.3v-5.6H20V71m7-7.5h-6.9c-.6 0-1.6.1-2 .5-.5.4-.6 1.3-.6 1.9v4.7c0 .6.1 1.4.6 1.9s1.4.5 2 .5H27c.6 0 1.5-.1 2-.5.5-.5.6-1.3.6-1.9v-4.7c0-.6-.1-1.4-.6-1.9-.4-.4-1.3-.5-2-.5zm-6.8 7.3v-5h6.7v5h-6.7z"/><path id="j-stroke_1_" class="st3" d="M15.4 61.7v8.5c0 1-.2 1.7-.6 2.1-.4.4-1.1.5-2.2.5H8c-1.1 0-1.8-.2-2.2-.5-.4-.4-.6-1.1-.6-2.1V68h2.6v2.7h5v-9h2.6m.3-.3h-3.1v9H8.1v-2.7H5v2.4c0 .7.1 1.7.6 2.2.6.7 1.7.7 2.4.7h4.7c.7 0 1.8-.1 2.3-.6.6-.5.7-1.5.7-2.2v-8.8z"/></g></g></svg>