<svg xmlns="http://www.w3.org/2000/svg" viewBox="0 0 512 512"><style>.st0{fill:#0273b9}.st1{fill:#fff}.st3{fill:#939393}.st4{fill:#a6a6a6}.st5{fill:#d1d0c6}.st6{stroke-width:.25}.st6,.st7{fill:#fff;stroke:#666;stroke-miterlimit:10}</style><g id="background"><path class="st0" d="M256 506c-66.8 0-129.6-26-176.8-73.2C32 385.6 6 322.8 6 256S32 126.4 79.2 79.2C126.4 32 189.2 6 256 6s129.6 26 176.8 73.2C480 126.4 506 189.2 506 256s-26 129.6-73.2 176.8S322.8 506 256 506z"/><path class="st1" d="M256 10c135.9 0 246 110.1 246 246S391.9 502 256 502 10 391.9 10 256 120.1 10 256 10m0-8c-34.3 0-67.6 6.7-98.9 20-30.2 12.8-57.4 31.1-80.7 54.4S34.8 126.9 22 157.1C8.7 188.4 2 221.7 2 256s6.7 67.6 20 98.9c12.8 30.2 31.1 57.4 54.4 80.7s50.5 41.6 80.7 54.4c31.3 13.2 64.6 20 98.9 20s67.6-6.7 98.9-20c30.2-12.8 57.4-31.1 80.7-54.4s41.6-50.5 54.4-80.7c13.2-31.3 20-64.6 20-98.9s-6.7-67.6-20-98.9c-12.8-30.2-31.1-57.4-54.4-80.7S385.1 34.8 354.9 22C323.6 8.7 290.3 2 256 2z"/></g><g id="graphic_1_"><g id="graphic"><path id="pole_2_" class="st1" d="M170.1 225h28.4v277.6l-28.4-8z"/><path id="pole_3_" class="st1" d="M170.1 221h28.4v277.6l-28.4-8z"/><g id="skirting_1_"><path fill="#fff" stroke="#666" stroke-width=".5" stroke-miterlimit="10" d="M127.4 230.7h259.5v2.7H127.4z"/><path class="st3" d="M127.4 233.4h259.5v2.7H127.4z"/><path class="st4" d="M127.4 236h259.5v2.7H127.4z"/><path class="st5" d="M127.4 238.7h259.5v2.7H127.4z"/><path class="st6" d="M127.4 241.4h259.5v2.7H127.4z"/><path class="st3" d="M127.4 244.1h259.5v2.7H127.4z"/><path class="st4" d="M127.4 246.8h259.5v2.7H127.4z"/><path class="st5" d="M127.4 249.4h259.5v2.7H127.4z"/><path class="st6" d="M127.4 252.1h259.5v2.7H127.4z"/></g><g id="rail-group_1_"><path class="st7" d="M105.2 226.6s0-.1 0 0l-.1-1.3c0-.1.1-.1.1-.1h296.3c.1 0 .1.1.1.1v1.2c0 .1-.1.1-.1.1H105.2z"/><path class="st1" d="M401.5 225.3v1.2H105.2v-1.2h296.3m0-.1H105.2c-.1 0-.1.1-.1.1v1.2c0 .1.1.1.1.1h296.3c.1 0 .1-.1.1-.1v-1.3h-.1z"/><path class="st7" d="M105.4 240.9c-.1 0-.1-.1 0 0l-.1-1.3c0-.1.1-.1.1-.1h296.3c.1 0 .1.1.1.1v1.2c0 .1-.1.1-.1.1H105.4z"/><path class="st1" d="M401.7 239.6v1.2H105.4v-1.2h296.3m0-.1H105.4c-.1 0-.1.1-.1.1v1.2c0 .1.1.1.1.1h296.3c.1 0 .1-.1.1-.1l-.1-1.3c.1.1.1 0 0 0z"/><path class="st7" d="M105.6 255.1l-.1-1.3c0-.1.1-.1.1-.1H402c.1 0 .1.1.1.1v1.2c0 .1-.1.1-.1.1H105.6z"/><path class="st1" d="M402 253.9v1.2H105.6v-1.2H402m0 0H105.6c-.1 0-.1.1-.1.1v1.2c0 .1.1.1.1.1H402c.1 0 .1-.1.1-.1l-.1-1.3z"/><path class="st7" d="M105.3 255.1c-.1 0-.1 0 0 0l-.1-30.2c0-.1.1-.1.1-.1h1.7c.1 0 .1.1.1.1V255c0 .1-.1.1-.1.1h-1.7z"/><path class="st1" d="M106.9 225v30.1h-1.7V225h1.7m0 0h-1.7c-.1 0-.1.1-.1.1v30.1c0 .1.1.1.1.1h1.7c.1 0 .1-.1.1-.1l-.1-30.2c.2 0 .2 0 0 0z"/><path class="st7" d="M147.4 255.1c-.1 0-.1 0 0 0l-.1-30.2c0-.1.1-.1.1-.1h1.8V255c0 .1-.1.1-.1.1h-1.7z"/><path class="st1" d="M149 225v30.1h-1.7V225h1.7m0 0h-1.7c-.1 0-.1.1-.1.1v30.1c0 .1.1.1.1.1h1.7c.1 0 .1-.1.1-.1L149 225c.1 0 .1 0 0 0z"/><path class="st7" d="M189.4 255.1l-.1-30.2c0-.1.1-.1.1-.1h1.7c.1 0 .1.1.1.1V255c0 .1-.1.1-.1.1h-1.7z"/><path class="st1" d="M191.1 225v30.1h-1.7V225h1.7m0 0h-1.7c-.1 0-.1.1-.1.1v30.1c0 .1 0 .1.1.1l.1.1h1.7c.1 0 .1-.1.1-.1V225h-.2z"/><path class="st7" d="M231.5 255.1l-.1-30.2c0-.1.1-.1.1-.1h1.7c.1 0 .1.1.1.1V255c0 .1-.1.1-.1.1h-1.7z"/><path class="st1" d="M233.2 225v30.1h-1.7V225h1.7m0 0h-1.7c-.1 0-.1.1-.1.1v30.1c0 .1.1.1.1.1h1.7c.1 0 .1-.1.1-.1l-.1-30.2c.1 0 .1 0 0 0z"/><path class="st7" d="M273.5 255.1l-.1-30.2c0-.1.1-.1.1-.1h1.7c.1 0 .1.1.1.1V255c0 .1-.1.1-.1.1h-1.7z"/><path class="st1" d="M275.3 225v30.1h-1.7V225h1.7m0 0h-1.7c-.1 0-.1.1-.1.1v30.1c0 .1 0 .1.1.1l.1.1h1.7c.1 0 .1-.1.1-.1V225h-.2z"/><path class="st7" d="M315.6 255.1l-.1-30.2c0-.1.1-.1.1-.1h1.7c.1 0 .1.1.1.1V255c0 .1-.1.1-.1.1h-1.7z"/><path class="st1" d="M317.4 225v30.1h-1.7V225h1.7m0 0h-1.7c-.1 0-.1.1-.1.1v30.1c0 .1.1.1.1.1h1.7c.1 0 .1-.1.1-.1l-.1-30.2z"/><path class="st7" d="M357.7 255.1l-.1-30.2c0-.1.1-.1.1-.1h1.7c.1 0 .1.1.1.1V255c0 .1-.1.1-.1.1h-1.7z"/><path class="st1" d="M359.5 225v30.1h-1.7V225h1.7m0 0h-1.7c-.1 0-.1.1-.1.1v30.1c0 .1.1.1.1.1h1.7c.1 0 .1-.1.1-.1l-.1-30.2z"/><path class="st7" d="M399.8 255.1l-.1-30.2c0-.1.1-.1.1-.1h1.7c.1 0 .1.1.1.1V255c0 .1-.1.1-.1.1h-1.7z"/><path class="st1" d="M401.5 225v30.1h-1.7V225h1.7m0 0h-1.7c-.1 0-.1.1-.1.1v30.1c0 .1.1.1.1.1h1.7c.1 0 .1-.1.1-.1l-.1-30.2c.1 0 0 0 0 0z"/></g><path d="M399.6 137.6V233H113.1v-95.5h286.5m0-.8H113.1c-.5 0-1 .4-1 1v95.5c0 .5.4 1 1 1h286.5c.5 0 1-.4 1-1v-95.5c-.1-.6-.5-1-1-1h0z" fill="none" stroke="#fff" stroke-miterlimit="10" id="rearface_1_"/><g id="frontface_1_"><path d="M116 229c-.2 0-.5-.2-.5-.5v-90c0-.2.2-.5.5-.5h282.9c.2 0 .5.2.5.5v90c0 .2-.2.5-.5.5H116h0z" fill="#fff" stroke="#5c5c5c" stroke-miterlimit="10"/><path class="st7" d="M396.4 140.8v89.1H116.3v-89.1h280.1m0-1H116.3c-.5 0-1 .4-1 1v89.1c0 .5.4 1 1 1h280.1c.5 0 1-.4 1-1v-89.1c0-.5-.4-1-1-1z"/></g></g><text transform="translate(146.879 214.962)" class="st0" font-size="77.074" font-family="AkzidenzGroteskBE-BoldIt">Jones</text></g></svg>