<?xml version="1.0" encoding="utf-8"?>
<!-- Generator: Adobe Illustrator 22.1.0, SVG Export Plug-In . SVG Version: 6.00 Build 0)  -->
<svg version="1.1" id="jones-outdoor-logo" xmlns="http://www.w3.org/2000/svg" xmlns:xlink="http://www.w3.org/1999/xlink" x="0px"
	 y="0px" viewBox="0 0 139.8 30.8" style="enable-background:new 0 0 139.8 30.8;" xml:space="preserve">
<style type="text/css">
	.st0{fill:#BFBFBF;}
</style>
<g id="jones-outdoor-logo-fill">
	<g id="tagline-fill">
		<g id="up_1_">
			<path id="p-fill" class="st0" d="M132.2,29.3v-6.9h0.7v0.7L133,23c0.2-0.2,0.5-0.4,0.8-0.5c0.3-0.1,0.6-0.2,0.9-0.2
				c0.6,0,1.1,0.2,1.3,0.7c0.3,0.5,0.5,1,0.5,1.9c0,0.8-0.2,1.5-0.6,2c-0.4,0.5-0.9,0.7-1.5,0.7c-0.3,0-0.5,0-0.7-0.1
				c-0.2-0.1-0.4-0.2-0.6-0.3l-0.2-0.1v2.3L132.2,29.3L132.2,29.3z M134.4,22.9c-0.3,0-0.6,0.1-0.8,0.2c-0.3,0.1-0.5,0.3-0.7,0.5
				l0,0v3.1h0.1c0.3,0.1,0.5,0.2,0.7,0.3c0.2,0,0.4,0.1,0.6,0.1c0.5,0,1-0.2,1.2-0.6c0.3-0.4,0.4-0.8,0.4-1.6c0-0.7-0.1-1.1-0.3-1.5
				C135.3,23.1,134.9,22.9,134.4,22.9z"/>
			<path id="u-fill_1_" class="st0" d="M128.1,27.6c-0.4,0-0.8-0.1-1.1-0.2c-0.3-0.1-0.6-0.3-0.8-0.5c-0.2-0.2-0.4-0.5-0.5-0.8
				c-0.1-0.3-0.2-0.7-0.2-1.2v-4.2h0.7v4.2c0,0.3,0,0.6,0.1,0.8c0,0.2,0.1,0.5,0.3,0.7c0.2,0.2,0.4,0.4,0.6,0.5
				c0.2,0.1,0.5,0.2,0.9,0.2c0.3,0,0.6-0.1,0.9-0.2s0.5-0.3,0.6-0.5c0.1-0.2,0.2-0.4,0.3-0.7c0-0.2,0.1-0.5,0.1-0.8v-4.3h0.7v4.2
				c0,0.5-0.1,0.8-0.2,1.2c-0.1,0.4-0.3,0.6-0.5,0.8c-0.2,0.2-0.5,0.4-0.8,0.5C129,27.6,128.6,27.6,128.1,27.6z"/>
		</g>
		<g id="looking_1_">
			<path id="g-fill" class="st0" d="M118.7,29.4c-0.3,0-0.5,0-0.8-0.1c-0.2,0-0.5-0.1-0.7-0.1v-0.7c0,0,0.1,0,0.1,0.1
				c0.1,0,0.3,0.1,0.4,0.1c0.2,0,0.3,0.1,0.5,0.1c0.2,0,0.3,0,0.5,0c0.3,0,0.6,0,0.8-0.1c0.2-0.1,0.4-0.2,0.5-0.4
				c0.1-0.2,0.2-0.3,0.3-0.5c0-0.2,0.1-0.4,0.1-0.7v-0.7l-0.2,0.2c-0.2,0.2-0.5,0.4-0.7,0.5c-0.2,0.1-0.5,0.1-0.9,0.1
				c-0.6,0-1.1-0.2-1.3-0.7c-0.4-0.4-0.5-1-0.5-1.9c0-0.4,0.1-0.7,0.2-1.1c0.1-0.3,0.3-0.6,0.5-0.8c0.2-0.2,0.4-0.4,0.7-0.5
				s0.6-0.2,0.8-0.2c0.3,0,0.5,0,0.7,0.1c0.2,0.1,0.4,0.2,0.6,0.3l0.2,0.1l0.1-0.3h0.6v4.5c0,0.8-0.2,1.5-0.6,1.9
				C120.2,29.2,119.6,29.4,118.7,29.4z M119.1,22.8c-0.5,0-0.9,0.2-1.2,0.6c-0.3,0.4-0.4,0.8-0.4,1.5c0,0.6,0.1,1.1,0.3,1.4
				c0.2,0.4,0.6,0.5,1.1,0.5c0.3,0,0.5-0.1,0.8-0.2c0.3-0.1,0.5-0.2,0.7-0.4l0,0v-3h-0.1c-0.2-0.1-0.5-0.2-0.7-0.3
				C119.5,22.9,119.3,22.8,119.1,22.8z"/>
			<path id="n-fill_1_" class="st0" d="M115,27.5v-2.9c0-0.3,0-0.5,0-0.7s-0.1-0.4-0.2-0.6c-0.1-0.2-0.2-0.3-0.4-0.4
				c-0.2-0.1-0.4-0.1-0.6-0.1c-0.3,0-0.5,0.1-0.8,0.2s-0.5,0.3-0.8,0.5l0,0v3.8h-0.7v-4.9h0.7v0.7l0.2-0.2c0.3-0.2,0.5-0.4,0.8-0.6
				c0.3-0.1,0.5-0.2,0.8-0.2c0.5,0,0.9,0.2,1.2,0.5s0.4,0.7,0.4,1.4v3.3C115.7,27.5,115,27.5,115,27.5z"/>
			<path id="i-fill" class="st0" d="M109.4,27.5v-4.9h0.7v4.9H109.4z M109.4,21.3v-0.7h0.8v0.7H109.4z"/>
			<polygon id="k-fill" class="st0" points="107.7,27.5 105.7,24.9 105.2,25.3 105.1,27.5 104.5,27.5 104.5,20.4 105.1,20.4 
				105.1,24.9 107.5,22.4 108.3,22.4 106.2,24.5 108.6,27.5 			"/>
			<path id="o-two-fill_1_" class="st0" d="M101.1,27.6c-0.7,0-1.2-0.2-1.6-0.7c-0.4-0.5-0.6-1.1-0.6-2c0-0.8,0.2-1.5,0.7-2
				c0.4-0.5,1-0.7,1.6-0.7s1.2,0.2,1.6,0.7c0.4,0.5,0.6,1.1,0.6,2c0,0.8-0.2,1.5-0.6,2C102.3,27.4,101.7,27.6,101.1,27.6z
				 M101.1,22.8c-0.5,0-1,0.2-1.2,0.6c-0.3,0.4-0.4,0.8-0.4,1.6c0,0.7,0.1,1.2,0.4,1.6c0.3,0.4,0.7,0.6,1.2,0.6
				c0.5,0,0.9-0.2,1.2-0.6c0.3-0.4,0.4-0.8,0.4-1.6c0-0.7-0.1-1.2-0.4-1.6C101.9,23,101.6,22.8,101.1,22.8z"/>
			<path id="o-one-fill_1_" class="st0" d="M95.7,27.6c-0.7,0-1.2-0.2-1.6-0.7c-0.4-0.5-0.6-1.1-0.6-2c0-0.8,0.2-1.5,0.7-2
				c0.4-0.5,1-0.7,1.6-0.7s1.2,0.2,1.6,0.7c0.4,0.5,0.6,1.1,0.6,2c0,0.8-0.2,1.5-0.6,2C96.9,27.4,96.4,27.6,95.7,27.6z M95.7,22.8
				c-0.5,0-1,0.2-1.2,0.6c-0.3,0.4-0.4,0.8-0.4,1.6c0,0.7,0.1,1.2,0.4,1.6c0.3,0.4,0.7,0.6,1.2,0.6s0.9-0.2,1.2-0.6s0.4-0.8,0.4-1.6
				c0-0.7-0.1-1.2-0.4-1.6C96.6,23,96.2,22.8,95.7,22.8z"/>
			<polygon id="l-fill" class="st0" points="89,27.5 89,20.8 89.7,20.8 89.7,26.9 92.8,26.9 92.8,27.5 			"/>
		</g>
		<g id="keep_1_">
			<path id="p-fill_1_" class="st0" d="M80.3,29.3v-6.9H81v0.7l0.2-0.2c0.2-0.2,0.5-0.4,0.8-0.5c0.3-0.1,0.6-0.2,0.9-0.2
				c0.6,0,1.1,0.2,1.3,0.7c0.3,0.5,0.5,1,0.5,1.9c0,0.8-0.2,1.5-0.6,2s-0.9,0.7-1.5,0.7c-0.3,0-0.5,0-0.7-0.1
				c-0.2-0.1-0.4-0.2-0.6-0.3l-0.2-0.1v2.3L80.3,29.3L80.3,29.3z M82.5,22.9c-0.3,0-0.6,0.1-0.8,0.2c-0.3,0.1-0.5,0.3-0.7,0.5l0,0
				v3.1h0.1c0.3,0.1,0.5,0.2,0.7,0.3c0.2,0,0.4,0.1,0.6,0.1c0.5,0,0.9-0.2,1.2-0.6c0.3-0.4,0.4-0.8,0.4-1.6c0-0.7-0.1-1.1-0.3-1.5
				C83.4,23.1,83,22.9,82.5,22.9z"/>
			<path id="e-one-fill" class="st0" d="M72.2,27.6c-0.9,0-1.4-0.2-1.9-0.7c-0.5-0.5-0.7-1.1-0.7-2c0-0.8,0.2-1.5,0.7-2
				c0.5-0.5,1-0.7,1.7-0.7c0.3,0,0.6,0,0.9,0.1c0.2,0.1,0.5,0.2,0.7,0.4c0.2,0.2,0.3,0.4,0.4,0.7c0.1,0.3,0.2,0.7,0.2,1v0.4h-3.7
				v0.1c0,0.7,0.2,1.1,0.5,1.5c0.4,0.4,0.8,0.6,1.4,0.6c0.2,0,0.4,0,0.6-0.1c0.2,0,0.4-0.1,0.6-0.2c0.2-0.1,0.3-0.2,0.4-0.2l0.1-0.1
				v0.8l-0.3,0.1c-0.2,0.1-0.3,0.1-0.4,0.1c-0.2,0-0.3,0.1-0.5,0.1C72.6,27.6,72.4,27.6,72.2,27.6z M71.9,22.8c-0.3,0-0.5,0-0.7,0.1
				c-0.2,0.1-0.4,0.2-0.5,0.4c-0.2,0.2-0.3,0.3-0.4,0.5c-0.1,0.2-0.1,0.4-0.1,0.7v0.1h3.2v-0.1c0-0.3,0-0.5-0.1-0.7
				c-0.1-0.2-0.1-0.4-0.3-0.5c-0.1-0.2-0.3-0.3-0.5-0.4S72.1,22.8,71.9,22.8z"/>
			<path id="e-fill_1_" class="st0" d="M77.4,27.6c-0.9,0-1.4-0.2-1.9-0.7c-0.5-0.5-0.7-1.1-0.7-2c0-0.8,0.2-1.5,0.7-2
				c0.5-0.5,1-0.7,1.7-0.7c0.3,0,0.6,0,0.9,0.1c0.2,0.1,0.5,0.2,0.7,0.4c0.2,0.2,0.3,0.4,0.4,0.7c0.1,0.3,0.2,0.7,0.2,1v0.4h-3.7
				v0.1c0,0.7,0.2,1.1,0.5,1.5c0.4,0.4,0.8,0.6,1.4,0.6c0.2,0,0.4,0,0.6-0.1c0.2,0,0.4-0.1,0.6-0.2c0.2-0.1,0.3-0.2,0.4-0.2l0.1-0.1
				v0.8l-0.3,0.1c-0.2,0.1-0.3,0.1-0.4,0.1c-0.2,0-0.3,0.1-0.5,0.1C77.7,27.6,77.6,27.6,77.4,27.6z M77.1,22.8c-0.3,0-0.5,0-0.7,0.1
				c-0.2,0.1-0.4,0.2-0.5,0.4c-0.2,0.2-0.3,0.3-0.4,0.5c-0.1,0.2-0.1,0.4-0.1,0.7v0.1h3.2v-0.1c0-0.3,0-0.5-0.1-0.7
				c-0.1-0.2-0.1-0.4-0.3-0.5c-0.1-0.2-0.3-0.3-0.5-0.4C77.6,22.8,77.4,22.8,77.1,22.8z"/>
			<polygon id="k-fill_1_" class="st0" points="68.4,27.5 65.7,24.1 65.2,24.7 65.2,27.5 64.5,27.5 64.5,20.8 65.2,20.8 65.2,24.1 
				68.3,20.8 69.1,20.8 66.2,23.7 69.3,27.5 			"/>
		</g>
	</g>
	<g id="outdoor-fill">
		<path id="r-fill" class="st0" d="M129.5,13.4v-8h2.4v1.3l0.2-0.2c0.1-0.1,0.3-0.3,0.5-0.4c0.2-0.2,0.4-0.3,0.6-0.4
			s0.4-0.2,0.7-0.3c0.2-0.1,0.5-0.1,0.7-0.1c0.1,0,0.2,0,0.3,0s0.1,0,0.2,0v2.2h-0.1c-0.1,0-0.2-0.1-0.4-0.1c-0.2,0-0.4,0-0.7,0
			c-0.3,0-0.6,0-1,0.1c-0.3,0.1-0.6,0.2-0.9,0.3h-0.1v5.5L129.5,13.4L129.5,13.4z"/>
		<path id="o-three-fill" class="st0" d="M123.5,13.7c-1.3,0-2.4-0.4-3.2-1.1c-0.8-0.7-1.2-1.8-1.2-3.2c0-1.3,0.4-2.4,1.2-3.2
			c0.8-0.7,1.8-1.1,3.2-1.1c1.3,0,2.4,0.4,3.2,1.1c0.8,0.7,1.2,1.9,1.2,3.2s-0.4,2.4-1.2,3.2C125.9,13.3,124.9,13.7,123.5,13.7z
			 M123.5,6.7c-0.3,0-0.5,0-0.7,0.1c-0.2,0.1-0.4,0.2-0.6,0.5c-0.2,0.2-0.3,0.5-0.4,0.8c-0.1,0.4-0.1,0.7-0.1,1.3
			c0,0.5,0,0.9,0.1,1.3c0.1,0.4,0.2,0.6,0.4,0.7c0.2,0.2,0.4,0.4,0.6,0.5c0.2,0.1,0.5,0.2,0.8,0.2c0.2,0,0.5-0.1,0.7-0.2
			c0.3-0.1,0.5-0.3,0.6-0.5c0.2-0.2,0.3-0.5,0.4-0.8c0.1-0.3,0.1-0.7,0.1-1.3c0-0.5,0-0.9-0.1-1.3c-0.1-0.4-0.2-0.7-0.4-0.8
			c-0.2-0.2-0.4-0.4-0.6-0.5C124,6.7,123.7,6.7,123.5,6.7z"/>
		<path id="o-two-fill" class="st0" d="M113.8,13.7c-1.3,0-2.4-0.4-3.2-1.1c-0.8-0.7-1.2-1.8-1.2-3.2c0-1.3,0.4-2.4,1.2-3.2
			c0.8-0.7,1.8-1.1,3.2-1.1c1.3,0,2.4,0.4,3.2,1.1c0.8,0.7,1.2,1.9,1.2,3.2s-0.4,2.4-1.2,3.2C116.3,13.3,115.2,13.7,113.8,13.7z
			 M113.8,6.7c-0.3,0-0.5,0-0.7,0.1c-0.2,0.1-0.4,0.2-0.6,0.5c-0.2,0.2-0.3,0.5-0.4,0.8c-0.1,0.4-0.1,0.7-0.1,1.3s0,0.9,0.1,1.3
			c0.1,0.4,0.2,0.6,0.4,0.7c0.2,0.2,0.4,0.4,0.6,0.5c0.2,0.1,0.5,0.2,0.8,0.2c0.2,0,0.5-0.1,0.7-0.2c0.3-0.1,0.5-0.3,0.6-0.5
			c0.2-0.2,0.3-0.5,0.4-0.8c0.1-0.3,0.1-0.7,0.1-1.3c0-0.5,0-0.9-0.1-1.3c-0.1-0.4-0.2-0.7-0.4-0.8c-0.2-0.2-0.4-0.4-0.6-0.5
			C114.4,6.7,114.1,6.7,113.8,6.7z"/>
		<path id="d-fill" class="st0" d="M102.8,13.6c-1,0-1.6-0.4-2.2-1.1c-0.6-0.7-0.9-1.8-0.9-3.1c0-0.7,0.1-1.3,0.3-1.9
			c0.2-0.6,0.5-0.9,0.8-1.3s0.7-0.7,1.1-0.8c0.4-0.2,0.9-0.3,1.3-0.3c0.4,0,0.8,0,1.1,0.1c0.3,0.1,0.6,0.2,1,0.4l0.2,0.1V2.1h2.4
			v11.3h-2.4v-1l-0.2,0.2c-0.2,0.1-0.4,0.3-0.6,0.5c-0.2,0.2-0.4,0.3-0.6,0.4c-0.2,0.1-0.4,0.2-0.6,0.2
			C103.4,13.6,103.1,13.6,102.8,13.6z M104.3,6.8c-0.7,0-1.2,0.3-1.5,0.7c-0.4,0.5-0.5,1.1-0.5,1.9c0,0.8,0.1,1.5,0.4,1.9
			s0.8,0.6,1.3,0.6c0.3,0,0.5,0,0.8-0.2c0.3-0.1,0.5-0.2,0.7-0.4h0.1V7.1h-0.1c-0.1-0.1-0.3-0.1-0.6-0.2
			C104.6,6.8,104.4,6.8,104.3,6.8z"/>
		<path id="t-fill" class="st0" d="M97,13.6c-1.1,0-1.8-0.2-2.3-0.7c-0.5-0.4-0.7-1.1-0.7-2v-4H93V5.3h1.1V3h2.4v2.3h2.6v1.6h-2.6
			V10c0,0.3,0,0.6,0,0.7c0,0.3,0.1,0.5,0.1,0.7c0.1,0.2,0.2,0.4,0.4,0.5s0.5,0.2,0.9,0.2c0.2,0,0.4,0,0.6-0.1
			c0.3-0.1,0.4-0.1,0.5-0.2l0,0v1.6c-0.3,0.1-0.5,0.1-0.8,0.2C97.9,13.5,97.5,13.6,97,13.6z"/>
		<path id="u-fill" class="st0" d="M86.4,13.6c-0.8,0-1.4-0.3-1.9-0.7c-0.5-0.5-0.7-1.2-0.7-2.2V5.3h2.4v4c0,0.5,0,0.7,0,1
			c0,0.3,0.1,0.6,0.2,0.7c0.1,0.2,0.2,0.4,0.5,0.5c0.2,0.1,0.5,0.2,0.8,0.2c0.2,0,0.5,0,0.7-0.2c0.3-0.1,0.5-0.2,0.8-0.4h0.1V5.4
			h2.4v8h-2.4v-1L89,12.6c-0.5,0.4-0.9,0.7-1.2,0.8C87.3,13.5,87,13.6,86.4,13.6z"/>
		<path id="o-one-fill" class="st0" d="M76.8,13.6c-1.6,0-3-0.5-3.9-1.5c-1-1-1.4-2.4-1.4-4.1c0-1.8,0.5-3.1,1.4-4.1
			c1-1,2.3-1.5,3.9-1.5s3,0.5,3.9,1.5s1.4,2.4,1.4,4.1c0,1.8-0.5,3.2-1.4,4.1C79.8,13.1,78.4,13.6,76.8,13.6z M76.8,4.3
			c-0.4,0-0.7,0.1-1,0.2c-0.3,0.1-0.6,0.4-0.9,0.7c-0.3,0.3-0.5,0.7-0.6,1.2c-0.2,0.5-0.2,1-0.2,1.8c0,0.7,0.1,1.3,0.2,1.7
			c0.1,0.5,0.4,0.8,0.6,1.1c0.3,0.3,0.6,0.6,0.9,0.7c0.3,0.1,0.7,0.2,1.1,0.2c0.4,0,0.7-0.1,1.1-0.2c0.3-0.2,0.6-0.4,0.9-0.7
			c0.3-0.4,0.5-0.7,0.6-1.1c0.1-0.5,0.2-1,0.2-1.7c0-0.7-0.1-1.2-0.2-1.7s-0.3-0.8-0.6-1.2c-0.3-0.3-0.6-0.6-0.9-0.7
			C77.5,4.3,77.1,4.3,76.8,4.3z"/>
	</g>
	<rect id="pipe-fill" x="66.5" y="0.8" class="st0" width="0.5" height="15.1"/>
	<g id="jones-fill">
		<path id="s-fill" class="st0" d="M53.8,13.1c-1,0-1.5-0.2-1.9-0.5c-0.4-0.3-0.5-0.8-0.5-1.7v-0.3h2.1v0.6h6V9.6h-5.5
			c-1,0-1.5-0.2-1.9-0.5c-0.4-0.3-0.5-0.8-0.5-1.7V6.5c0-0.7,0.2-1.3,0.5-1.7c0.4-0.3,1-0.5,1.9-0.5h5.1c0.9,0,1.5,0.2,1.9,0.5
			c0.4,0.3,0.6,0.8,0.6,1.5v0.4h-2.1V6.3h-5.7v1.5h5.5c1,0,1.5,0.2,1.9,0.5c0.4,0.3,0.5,0.8,0.5,1.7V11c0,0.8-0.2,1.4-0.5,1.7
			c-0.4,0.3-1,0.5-1.8,0.5H53.8L53.8,13.1z"/>
		<polygon id="e-fill" class="st0" points="40.6,13.1 40.6,4.6 50.1,4.6 50.1,6.3 43,6.3 43,7.8 47.2,7.8 47.2,9.5 43,9.5 43,11.3 
			50.3,11.3 50.3,13.1 		"/>
		<polygon id="n-fill" class="st0" points="36.9,13.1 29.8,7.7 29.8,13.1 27.6,13.1 27.6,4.6 29.4,4.6 36.4,9.9 36.4,4.5 38.6,4.5 
			38.6,13.1 		"/>
		<path id="o-fill" class="st0" d="M16.7,13.1c-1,0-1.5-0.2-1.9-0.5c-0.4-0.3-0.5-0.8-0.5-1.7V6.6c0-0.8,0.2-1.3,0.5-1.7
			c0.3-0.3,1-0.5,1.9-0.5h6.6c1,0,1.5,0.2,1.9,0.5c0.3,0.3,0.5,0.8,0.5,1.7V11c0,0.8-0.2,1.4-0.5,1.7c-0.4,0.3-1,0.5-1.8,0.5
			C23.3,13.1,16.7,13.1,16.7,13.1z M16.7,11.3h6.6V6.4h-6.6V11.3z"/>
		<path id="j-fill" class="st0" d="M5.1,13.1c-1.1,0-1.8-0.2-2.2-0.6s-0.6-1-0.6-2V8.5h2.8V11h4.5V2.6h2.7v8c0,1-0.2,1.7-0.6,2
			c-0.4,0.4-1.1,0.6-2.1,0.6C9.6,13.1,5.1,13.1,5.1,13.1z"/>
	</g>
</g>
</svg>
